<?xml version="1.0" encoding="UTF-8"?>
<svg version="1.1" viewBox="0 0 2048 1780" width="1280" height="1280" xmlns="http://www.w3.org/2000/svg">
<path transform="translate(1345,479)" d="m0 0h13l10 2 12 5 22 10 23 11 11 8 6 7 3 7 1 14-1 10v14l4 12 8 15 1 4v13l-6 16-3 11v10l1 6v18l-3 15 1 10 7 14 10 15 4 9 3 15 4 40 4 45 7 8 9 3 39 1 56 2h29l22-1 40-4 16-3 13-4h14l5 3 1 2v10l-6 18-8 20-4 16-2 18v18l2 15 5 12 10 9 14 10 10 7 6 3 17 3 6 4 1 2v7l-3 15 1 9 5 12 14 18 8 16 4 16 1 8v19l-3 20-2 9-1 19v14l-5 10-8 10-13 17-12 19-14 25-4 10-1 4v11l4 6 9 7 6 8 4 8 1 5-4 3-17 4-13 2-3-8-5-19-6-10-10-8-14-8-16-6-8-2-13-5-32-16-37-16-15-4-14-2h-43l-23 4-20 6-34 11-27 6-57 9-40 8-15 5-11 7-4 2-2 4-7 9-10 21-8 19-6 11-13 16-8 14-5 11-104 1-9 1h-15l-7-3-11-11-6-1-7 6-4 5-4 2-7-1-2-2-2-14-3-43-2-34-1-27-1-50-1-3-7-2h-21v16l-4 1-6-7-5-12-8-27-6-9-16-8-8-6-1-3h-2l-1-4 7-12 2-7-1-10-4-10-8-11-7-7-8-7-11-14-4-7-1-4v-12l4-5 14-8 17-8 10-9 4-10v-19l-5-12-6-8-8-8-12-15-6-4-3-1-16-2-5-5-4-6-4-13-2-11v-19l4-18 9-23 3-12v-12l-9-27v-5l17-3 40-7 27-4 34-7 46-8 14-4 6-3 2-2-1-8-6-10-10-12-5-19-4-14-4-5-3-1-11-1-3-3-3-7-2-13-9-10-6-7v-7l10-26 14-30 18-7 30-11 30-12 37-15 38-15 34-12 37-13 28-12 17-9 4-3 3-1z" fill="#FDFDFD"/>
<path transform="translate(794,96)" d="m0 0 3 1-1 4v9l4 10 7 10 2 9v24l-5 40-1 7v10l4 11 7 11 9 11 8 6 13 7 4 7 4 13 5 6 12 9 12 6 18 8 5 4 10 19 7 7 8 4 18 6 20 9 10 3 17 2 9-2 11-7h7l19 5 19 6 11 1 21-4 6 4 9 11 5 5 9 8 15 8 15 5 30 7 21 6 21 9 12 8 11 9 12 12 10 7 14 7 17 4 15 2v3l-15 7-27 11-19 7-30 10-21 8-32 13-46 19-39 15-30 11-3 2-11 23-10 23-6 17 1 6 7 9 7 7 4 16 3 7 1 3 5 2h11l4 4 3 13 3 15 3 8 9 10 6 9-4 4-25 6-50 9-25 5-45 7-26 4h-24l-19-3-28-5h-11l-9 3-9 7-6 7-11 26-5 15-5 5-23 12-6 3h-11l-32-5-12-5-8-7-7-10-8-12-6-7-8-5-16-5-16-6-15-8-4-8-10-21-11-17-7-11-6-12-5-18-4-17-4-10-10-15-12-12-8-7 2-5 2-4v-21l7-15 2-11 2-18 10-21 1-3v-8l-3-9 7-24 7-17 4-6 10-8 3-6 3-22 7-11 5-8 3-8 3-13 5-12 3-13 3-19 1-6 1-17 7-22v-8l-5-12-4-7-1-5 2-5 5-4 14-5 5-5 2-3v-7l-6-13 1-5 4-2 39-5 8-3 4-5 1-11v-10l4-11 7-8 4-8-1-19 2-7 3-2h19l8-4 10-9 5-7 4-12 4-6 16-10z" fill="#FDFDFD"/>
<path transform="translate(484,301)" d="m0 0 6 1 22 12 42 21 23 13 22 11 13 8 4 3-1 10-5 17-6 17-5 13-6 8-4 8-2 16-2 10-5 4-6 5-8 17-6 18-4 14 2 9 1 3v8l-8 16-3 7-2 23-8 18v21l-4 9 1 6 5 6 8 7 7 7 9 14 5 15 5 24 5 14 8 14 11 15 10 18 3 6-1 7-5 9v7l6 16 1 25 4 16 8 17 9 14 9 12 5 14v9l-4 7-7 7-6 5-5 7-1 3v10l3 14 10 20v13l-1 8h-17l-19-1h-16l-10 4-9 6-12 11-10 9-14 10-11 4-14-1-16-4-11-3-10 1-17 5-18 8-44 22-10 6h-5l-6-4-10-4-5-6-6-18-9-16-5-9-4-17-5-9-6-9-1-3v-13l4-14 6-9 15-20 8-10 9-10 12-9 10-7 6-8 8-16 4-7 11-8 6-8-1-7-6-7-12-8v-4l8-9v-7l-5-5-8-3-19-3-10-9-11-11-8-7-5-8 4-16 3-11v-12l-4-11-13-21-3-11 1-13 5-14 7-12 10-13 12-14 13-17 6-13 2-8v-12l-7-20 1-9v-10l-4-9-4-6v-9l5-22 1-11 1-51 4-29 4-9 7-7 15-10 8-9 3-11 2-1 6 1h8l4-2 2-6 2-12 4-6 4-4 6-14 5-5 10 1 7-2z" fill="#FDFDFD"/>
<path transform="translate(748,1080)" d="m0 0h13l13 4 14 9 10 8 8 11 7 9 8 8 8 7 1 2-3 4h-5l-9-8-8-1-5 5v9l6 11v12l-1 10 2 5 2 1h8l5-1 1 1-1 11-2 8v14l4 12 6 10 11 13 8 7 10 4h7l8-4 3-2 7 1 12 6 3 4 3 10 9 11 6 10v7l-9 8-8 6-12 10-10 6-13 4-14 5-10 6-2 3v8l3 8 1 7-1 17-6 39-4 30v35l3 10 9 11 10 11 7 10v9l-7 18v10l6 24v4l-11 1h-35l-14-8-10-5-28-8-10-1-7 3-6 7-8 12-13 8-11 6-11 11-10 14-5 6-11 9-6 7-12 23-5 7-11 5-46 14-16 3h-11l-3-4-4-15-2-26-4-25-5-15-11-21-7-19-7-28-4-32-5-16-9-16-9-10-14-10-9-6-4-4-1-3v-27l-3-8-5-6-8-7-5-10-6-22-2-11 8-7 8-6 6-7 2-6v-7l-4-11-4-7 1-8 2-6 11 2 24 6 18 7 12 6 10 3h22l14-5 19-9 16-8 15-9 19-12 18-10 13-5 17-4 12-5 19-10 18-12 11-8 1-2v-7l-4-6-9-3-22-3-8-6-8-8-11-15-7-15-7-24-3-14v-21l5-23 3-3 24 6h13l10-5 5-4 14-7z" fill="#FDFDFD"/>
<path transform="translate(799,1)" d="m0 0 7 1 6 4 1 1v12l-2 16-1 28-4 13-5 10-19 10-11 7-4 2-2 4-8 19-9 9-6 4-19 1-7 3-3 6v24l-7 8h-2l-2 5-4 8-1 4-1 21-2 2-19 3-23 3-8 4-3 4v9l5 10v6l-8 4-11 4-6 5-3 6v8l4 9 6 11v8l-7 19-1 17-1 7h-3l-44-22-22-12-25-12-19-10-14-8-5-2-6 1-5 5-5 6-10-1-8 3-5 6-4 10-3 5-7 8-4 16-1 2-6-1-4-1h-5l-13-11-9-11-13-18-14-19-12-17-16-23-13-19-10-14-14-20-12-19v-2l13-2h10l47 6 11 1h13l12-2 16-6 11-8 7-7 11-14 12-13 6-5 8-3 7-1 20-1 12-6 8-9 11-19 7-7 8-3 18-4 9-5 15-12 13-9 10-7 16-7 17-5 25-5 25-9 17-6 13-3 8-1h9l19 3 10 1h14l11-4z" fill="#FDFDFD"/>
<path transform="translate(835,791)" d="m0 0 15 1 30 6 22 3 2 7 5 16 3 11-1 12-5 17-7 19-2 10v25l3 15 5 13 6 8 6 4 20 3 6 5 7 11 13 13 5 10 1 5v10l-4 11-8 7-18 8-11 6-7 6-2 4-1 13 2 9 6 10 11 13 16 15 8 11 3 7v9l-6 10-4 5-4 1-11-7-15-10-8-3h-10l-4 2-9 12-8 4h-11l-16-6-10-7-7-7-7-8-12-11-7-7-9-12-10-10-15-10-11-5-7-2-13-1-13 2-12 5-13 9-10 2-21-5-9-3-4-13-9-17-10-15-5-7v-25l-3-8-6-10-3-9-1-6v-8l4-6 7-7 7-6 5-10v-9l-4-15-7-12-7-9-9-16-5-11-3-15-1-22-3-11-3-9 4-6 6 2 17 8 25 7 10 7 8 11 10 16 8 7 13 6 26 5 7 1h14l16-8 19-10 4-5 6-16 10-26 6-7 10-6z" fill="#FDFDFD"/>
<path transform="translate(806,1141)" d="m0 0 4 1 5 4 5 2h7l5-4 1-2 4 2 7 7 11 7 11 5 7 2h11l8-3 9-8 7-8 5-1 14 7 17 12 4 2 10 2 9 10 13 6 6 4 4 5 12 36 6 9 4 3 7 1 4-3 1-14 4-1 12 2 3 2 1 68 3 66 3 29 1 7 5 2 2 1h10l5-3 8-10 4 2 10 11 7 3 5 1h12l9-1h104v54l-2 5-17 1-90 2-85 4h-16l-7-11-3-2h-5l-5 10-4 16-4 3-3 1h-20l-8-3-8-7-7-8-5-3-4-1h-7l-20 9h-8l-12-7-7-1-8 6-11-3-7-1v21l8 32-2 9h-4l-12-13-8-10-3-8v-33l10-74v-17l-4-13 1-5 5-4 12-5 18-6 10-6 28-22 4-6v-7l-6-12-10-11-5-13-4-4-11-5-3-1h-8l-7 5h-10l-8-4-10-10-11-15-5-12v-15l3-13v-7l-2-4-4-1-10 2-1-5 2-10v-7l-7-15z" fill="#FDFDFD"/>
<path transform="translate(587,1032)" d="m0 0 35 2 13 1 5 2 7 8 11 18 6 13v8l-6 28-1 6v20l4 17 8 24 9 17 12 16 8 8 8 5 11 2 17 3 5 4-1 4-5 4-32 20-17 8-9 3-17 4-16 7-20 12-16 10-23 12-16 8-16 6h-17l-13-4-27-12-16-5-18-5 1-5 3-11v-9l-3-10-5-8-1-3-4-2-10-6-19-8-6-4-6-7-12-22-13-24-4-12-1-5v-51l-1-7 9-6 27-14 31-15 17-6 7-2h9l21 6 7 1h13l11-4 11-7 13-12 7-7 14-10z" fill="#FDFDFD"/>
<path transform="translate(1008,1462)" d="m0 0 4 1 6 12 2 1h24l69-3 105-3h11v8l-5 26-5 19-11 30-13 40-5 13-5 8-2 1h-9l-6-2-3-4-3-15-3-6-5-4-10-3-7-1h-31l-29 4-29 2-12 3-8 5-7 10-15 27-10 17-4 10-2 10v7l3 15v8l-4 8-4 1-4-5-4-12-4-17-8-25-5-18-3-5-12-6-20-6-16-6-11-2h-15l-15 1-3-7-4-18v-12l6-17 1-11 4-11v-15l-7-22-2-12v-7l7 1 8 2 7-6 6 1 10 6 2 1h9l20-9h7l7 4 9 11 8 5 16 3h7l11-3 5-5 2-6 2-12z" fill="#FDFDFD"/>
<path transform="translate(1345,479)" d="m0 0h13l10 2 12 5 22 10 23 11 11 8 6 7 3 7 1 14-1 10v14l4 12 8 15 1 4v13l-6 16-3 11v10l1 6v18l-3 15 1 10 7 14 10 15 4 9 3 15 4 40 4 45 7 8 9 3 39 1 56 2h29l22-1 40-4 16-3 13-4h14l5 3 1 2v10l-6 18-8 20-4 16-2 18v18l2 15 5 12 10 9 14 10 10 7 6 3 17 3 6 4 1 2v7l-3 15 1 9 5 12 14 18 8 16 4 16 1 8v19l-3 20-2 9-1 19v14l-5 10-8 10-13 17-12 19-14 25-4 10-1 4v11l4 6 9 7 6 8 4 8 1 5-4 3-17 4-13 2-3-8-5-19-6-10-10-8-14-8-16-6-8-2-13-5-32-16-37-16-15-4-14-2h-43l-23 4-20 6-34 11-27 6-57 9-40 8-15 5-11 7-4 2-2 4-7 9-10 21-8 19-6 11-13 16-8 14-5 11-104 1-9 1h-15l-6-2 3-1 40-1h64l22-1 4-4 5-10 10-15 9-12 9-19 11-25 4-8 11-12 16-10 18-6 11-1 5-2 15-2 7-2 13-2 9-2 19-2 12-2 16-3 23-6 12-4 20-7 10-3 7-1 5-2 26-3h15l31 3 16 5 26 12 10 4 16 8 19 9 29 10 16 8 13 11 5 6 5 11 3 9 2 7 5 1 17-3 4-1v-8l-2-1-4-7-16-16-1-4v-7l4-13 8-16 10-17 7-11 12-17 8-9 7-11 2-9v-21l3-17 3-24v-11l-3-20-5-12-3-6-8-11-1-4-3-1-8-14-1-2v-20l2-10-1-4-7-3-13-2-11-6-14-10-13-10v-2h-3l-6-12-2-7-1-9v-26l5-27 9-23 3-9 2-10-1-8-3-2h-8l-9 3-23 6-33 2-9 2h-60l-43-2-39-1-10-3-6-4-5-6-2-7-2-21-1-26-2-12-1-16-5-20-2-3-2-6-2-5h-2l-3-6-2-2-2-5-5-10-1-3 1-16 2-12-1-17v-13l4-15 2-5 1-8v-11l-4-13-7-14v-18l1-22-4-10-14-10-19-10-14-6-11-5-16-6h-29l-12 3-3-1 8-5 3-1z" fill="#E9FBF6"/>
<path transform="translate(794,96)" d="m0 0 3 1-1 4v9l4 10 7 10 2 9v24l-5 40-1 7v10l4 11 7 11 9 11 8 6 13 7 4 7 4 13 5 6 12 9 12 6 18 8 5 4 10 19 7 7 8 4 18 6 20 9 10 3 17 2 9-2 11-7h7l19 5 19 6 11 1 21-4 6 4 9 11 5 5 9 8 15 8 15 5 30 7 21 6 21 9 12 8 11 9 12 12 10 7 14 7 17 4 15 2v3l-10 5-3-1 2-1v-4l-8-1-13-3-5-3-7-3-11-7-10-8-17-17-9-5-10-5-9-3-10-4-38-9-8-2-19-7-15-10-13-13-8-7-7-1-10 1h-15l-16-5-15-5h-8l-21 7h-16l-8-2-13-4-11-5-15-6-13-4-11-6-1-3-6-1v18l-2 6-3 7-4 8h-2l-1 2-5 1-3-5-3-3-1-17-4 5-2 1-3-3v-5h-2l-1-7-2 24-3 5-7 1-1 5-5-2-4-12-4-1v-6l-2 10-2-2-3 8-2-2-1-10v-36l3-1 2 21 1-32 1-4h2v-2h3l2 5 1 15v25l2 2 3-10 2-13 2-5 2-10 5-1 3 4 2 8 4-11 10 1 2 4h2v-2l6-3-1-4-16-8v-2l-6-1-9-5-10-9-5-7-5-13-4-5-13-8-12-12-10-16-3-6-2-13 2-11 2-21 2-11 1-11v-11l-1-13-4-10-6-8-3-9-5-6z" fill="#E9FBF6"/>
<path transform="translate(799,1)" d="m0 0 7 1-2 2-10 5-3 3-11 5-19-1-12-2-3-1h-35l-16 6-25 10-10 3-9 1-3 2-15 3-13 3-5 3-14 7-13 9-11 8-9 7-7 5-10 4-9 1-18 9-2 5-8 14h-2l-2 4-8 9-8 4-29 3-12 7-6 5-2 3h-2l-1 3h-2l-2 4-6 9-10 10-9 5-3 3-6 2-8 4-5 1h-31l-45-6-19-1v2h-2l3 7 8 11 11 16 7 9 15 22 14 21 8 11 21 28 13 18 10 14 2 1v2l10 5h8l3-4 6-12 7-10 5-12 7-6 6-2h11l5-5 4-3 2 1-5 5-4 5-10-1-8 3-5 6-4 10-3 5-7 8-4 16-1 2-6-1-4-1h-5l-13-11-9-11-13-18-14-19-12-17-16-23-13-19-10-14-14-20-12-19v-2l13-2h10l47 6 11 1h13l12-2 16-6 11-8 7-7 11-14 12-13 6-5 8-3 7-1 20-1 12-6 8-9 11-19 7-7 8-3 18-4 9-5 15-12 13-9 10-7 16-7 17-5 25-5 25-9 17-6 13-3 8-1h9l19 3 10 1h14l11-4z" fill="#E9FBF6"/>
<path transform="translate(1008,1462)" d="m0 0 4 1 6 12 2 1h24l69-3 105-3h11v8l-5 26-5 19-11 30-13 40-5 13-5 8-2 1h-9l-6-2-3-4-3-15-3-6-5-4-10-3-7-1h-31l-29 4-29 2-12 3-8 5-7 10-15 27-10 17-4 10-2 10v7l3 15v8l-4 8-4 1-4-5-4-12-4-17-8-25-5-18-3-5-12-6-20-6-16-6-11-2h-15l-15 1-3-7-4-18v-12l2-5h1v14l1 10 2 5 1 7 1 1h24l15 2 27 10 18 6 7 6 5 8 5 19 6 21 3 5 3 16 3 5 4-4-1-8-1-4h-2l-1-3 1-14 2-4 3-12 6-10 6-11 7-12 7-14 8-11 9-6 14-5 31-2 23-2 3-1h34l16 4 5 4v2h2l6 11 2 11 4 3h6l6-3 4-9 8-25 11-33 7-19 5-17 4-22 1-11-28 3-31 1-62 1-16 2-27 1-13 1h-30l-5-5-1-7-5 1-1 9h-1v-8z" fill="#E9FBF6"/>
<path transform="translate(457,1362)" d="m0 0 1 3-7 6-7 8-4 4 2 9 6 21 4 8 10 10 5 8 1 3 1 29 4 5v2l5 2 10 7 9 6 9 11 9 17 5 14 3 28 7 29 9 25 8 15 4 9 4 13 4 27 1 22 2 9 2 4 2 1h9l14-2 18-6 21-6 10-3 9-7 8-15 6-12 9-9 8-7 7-8 7-11 11-11 12-7 9-5 7-8 8-11 8-6h11l14 3 19 6 15 7 6 4h43l-1-13-3-7-1-12 2-8 4-13v-8l-6-9-4-4v-2h-2l-3-5 1-3 7 7 11 14 1 2v9l-7 18v10l6 24v4l-11 1h-35l-14-8-10-5-28-8-10-1-7 3-6 7-8 12-13 8-11 6-11 11-10 14-5 6-11 9-6 7-12 23-5 7-11 5-46 14-16 3h-11l-3-4-4-15-2-26-4-25-5-15-11-21-7-19-7-28-4-32-5-16-9-16-9-10-14-10-9-6-4-4-1-3v-27l-3-8-5-6-8-7-5-10-6-22-2-11 8-7 8-6z" fill="#E9FBF6"/>
<path transform="translate(438,345)" d="m0 0h1v10l-3 7-4 3-13 3v2h-2l-2 4-4 7h-2l-2 4h-2l-1 3-15 10-6 9-2 17v15l-2 23-3 43-1 7h-2l-1 17 7 15v21l6 17v12l-3 13-10 18-5 7h-2l-2 4-6 8-5 5-7 8-8 12-5 11-2 9v13l3 10 6 10 7 14 2 5 1 11-4 16-2 9v6l4 6v2l4 2 16 16 6 4 22 4 8 6 5 6v7l-5 8v5l5 4 6 5 3 5v7l-5-10-7-6-10-7 2-4 7-8v-7l-5-5-8-3-19-3-10-9-11-11-8-7-5-8 4-16 3-11v-12l-4-11-13-21-3-11 1-13 5-14 7-12 10-13 12-14 13-17 6-13 2-8v-12l-7-20 1-9v-10l-4-9-4-6v-9l5-22 1-11 1-51 4-29 4-9 7-7 15-10 8-9 3-11 2-1 6 1h8l4-2 2-6z" fill="#E9FBF6"/>
<path transform="translate(484,301)" d="m0 0 6 1 22 12 42 21 23 13 22 11 13 8 4 3-1 10-5 17-6 17-5 13-6 8-4 8-2 16-2 10-5 4-6 5-8 17-6 18-4 14 2 9 1 3v8l-8 16-3 7-2 23-8 18v21l-4 9 1 6 5 6 8 7 7 7 9 14 5 15 5 24 5 14 8 14 7 9-1 2-9-11-4-5-5-9-3-7-2-9-2-6-1-12-2-2-2-13-7-11-8-8v-2h-2l-7-8-8-8-1-2v-7l3-7v-18l2-8 6-14 4-25 4-10 6-13v-8l-2-4v-9l8-26 3-8 4-11 6-5h2l2-6 5-13 2-15 8-12 6-12 8-24 3-12v-8l-8-6-15-8-11-6-11-7-20-11-16-7-17-9-12-6-10-4h-8l-7 8-4 2h-6l-3-2-5 1-2 1 1-3 7-1 5 1 7-2z" fill="#E9FBF6"/>
<path transform="translate(647,271)" d="m0 0 2 1-5 6-13 7h-2l1 6 8 16v13l-4 13-2 6-1 16-3 15-1 12-4 15-6 19-4 13-6 11-4 8-4 25-1 2-6 3-3 4-4 9h-3v2h-4l-2 4-5 14-4 20 2 11-1 8-6 13-4 12-2 15-2 11-4 10-1 5-1 14-3 9-1 5 6 7 15 15 3 5 5 8 4 11 4 14 3 14 8 19 14 20 5 8 8 17 2 7 1 3 6 2 16 8 8 3-3 1-15-6-13-7-4-8-10-21-11-17-7-11-6-12-5-18-4-17-4-10-10-15-12-12-8-7 2-5 2-4v-21l7-15 2-11 2-18 10-21 1-3v-8l-3-9 7-24 7-17 4-6 10-8 3-6 3-22 7-11 5-8 3-8 3-13 5-12 3-13 3-19 1-6 1-17 7-22v-8l-5-12-4-7-1-5 2-5 5-4 14-5z" fill="#E9FBF6"/>
<path transform="translate(616,800)" d="m0 0 6 2 17 8 25 7 10 7 8 11 10 16 8 7 13 6 26 5 7 1h14l30-15 2 1-3 1v2l-7 3h-3l-1 3h-4l-1 3-5 1-1 3-25 2-23-4-17-6-8-6-7-7-3-7-9-15-6-6-8-4-12-3-9-2-7-3-16-4 1 4 3 8 1 7v17l1 13 5 13 10 19 7 9 5 7 4 9 3 8v17l-9 11-5 5h-2l-1 3-4 4-1 4v13l4 11 7 10 3 7v7l-2 7v9l6 10 4 4 6 11 9 17 2 7 4 2 11 4 17 2 11-6 5-4 13-5 9-2h18l8 4-3 1-13-2-13 1-12 4-14 9-6 3-7 1-21-5-9-3-4-13-9-17-10-15-5-7v-25l-3-8-6-10-3-9-1-6v-8l4-6 7-7 7-6 5-10v-9l-4-15-7-12-7-9-9-16-5-11-3-15-1-22-3-11-3-9z" fill="#E9FBF6"/>
<path transform="translate(1088,1395)" d="m0 0 7 6 7 3 5 1h12l9-1h104v54l-2 5-17 1-90 2-85 4h-16l-5-8 1-2 5 6 4 1 17-2 58-1 21-1 47-1 56-2 2-3v-24l-1-23-5-2h-109l-15-2-6-3-3-3z" fill="#E9FBF6"/>
<path transform="translate(412,875)" d="m0 0v3l-4 5-3 3-5 4-5 7-4 7-3 10-3 5-11 8h-2v2l-8 6h-2l-1 3-9 7-10 12-2 4h-2l-2 6-9 10-5 11-2 7v12l11 22 5 17 6 12 8 14 6 18 9 6 9 4 6-1 6-4 16-8 16-9 12-6 16-6 13-4 12-2h8l1 2h-8l-16 4-20 8-48 24-10 6h-5l-6-4-10-4-5-6-6-18-9-16-5-9-4-17-5-9-6-9-1-3v-13l4-14 6-9 15-20 8-10 9-10 12-9 10-7 6-8 8-16 4-7 11-8z" fill="#E9FBF6"/>
<path transform="translate(741,138)" d="m0 0 4 1-3 2-19 1-7 3-3 6v24l-7 8h-2l-2 5-4 8-1 4-1 21-2 2-19 3-23 3-8 4-3 4v9l5 10v6l-8 4-11 4-6 5-3 6v8l4 9 6 11v8l-7 19-1 17-1 7h-3l-44-22-22-12-25-12-1-2 9 3 16 8 33 17 15 8 13 6h4l2-5 1-15 6-17v-7l-4-10-5-10v-8l3-8 5-6 7-3 8-2 5-5-1-6-4-6v-10l4-6 6-4 3-1 27-3 13-3 2-6 1-14 3-10 6-8 6-6 1-3v-16l2-10 7-6 9-1z" fill="#E9FBF6"/>
<path transform="translate(1084,770)" d="m0 0 4 1-19 6-12 1v2l-22 2-4 2-15 3-1 1-15 2-4 2-12 1-11 3-14 1-16 4-14 3-10 1-3 2 1 7 4 11 4 10v7l-2 4-2 12-5 12-6 18-1 7v23l2 14 5 11 5 6 2 1 12 1 10 5v2l-4-2-5-2-16-2-5-5-4-6-4-13-2-11v-19l4-18 9-23 3-12v-12l-9-27v-5l17-3 40-7 27-4 34-7 46-8z" fill="#E9FBF6"/>
<path transform="translate(835,791)" d="m0 0 15 1 30 6 22 3 2 7 5 16 3 11-1 12-5 17-7 19-2 10v25l3 15 5 13 6 8 6 4 20 3 6 5 5 8-1 2-8-7-5-4-14-2-9-3-6-7-4-5-4-10-3-10-1-2-1-13v-10l1-12 5-17 5-12 4-17v-19l-2-2-2-9-4-7-7-3-25-5-11-3-10-1h-20l3-3z" fill="#E9FBF6"/>
<path transform="translate(1083,748)" d="m0 0 5 5 3 6-4 3-25 6-50 9-25 5-45 7-26 4h-24l-19-3-28-5h-11l-7 1 4-3h23l26 4 3 1 12 1h16l18-2 20-4 11-2 24-3 23-4 22-4 12-1 11-3 19-3 13-3z" fill="#E9FBF6"/>
<path transform="translate(1296,488)" d="m0 0 4 1-29 12-19 7-30 10-21 8-32 13-46 19-39 15-30 11-3 2-11 23-10 23-6 17v6l-3-3 1-7 5-14 3-6 3-9 8-15 8-16 5-4 24-9 12-5 16-5 8-4 13-5 11-5 13-5 16-7 32-13 15-6 9-3 14-5 9-3 10-3 8-3 9-3 4-2 8-2z" fill="#E9FBF6"/>
<path transform="translate(587,1032)" d="m0 0 35 2 13 1 5 2 7 8 11 18 6 13v8l-6 28-1 6v20l4 17 8 24 5 10-1 2-4-5-3-6-2-5-2-8-6-17-1-8-2-3v-23l2-8 1-11 3-12v-9l-5-13-6-11v-2l-4-2-6-7-3-1-29-1-6-1h-21l-9 5-5 2 5-5 10-6z" fill="#E9FBF6"/>
<path transform="translate(748,1080)" d="m0 0h13l13 4 14 9 10 8 8 11 7 9 8 8 8 7 1 2-3 4h-5l-1-2h3l-2-6-8-7-9-10-9-13-6-7-9-5-10-6-6-2h-11l-21 3-7 6-13 8-2 1h-15l-13-3-11-1-2 6-3 21v11l3 13 1 4 3 13 2 4 2 8 4 8 2 7-3-3-6-13-7-24-3-14v-21l5-23 3-3 24 6h13l10-5 5-4 14-7z" fill="#E9FBF6"/>
<path transform="translate(388,1106)" d="m0 0 2 1-5 3-1 3v58l6 18 6 11 7 12 8 16 7 9 5 4 18 8 8 4 12 11 6 12 1 3v10l-3 13v2l11 3 19 7 2 2-6-1-16-5-15-4 1-5 3-11v-9l-3-10-5-8-1-3-4-2-10-6-19-8-6-4-6-7-12-22-13-24-4-12-1-5v-51l-1-7z" fill="#E9FBF6"/>
<path transform="translate(1025,1224)" d="m0 0 12 1 6 3 1 68 3 66 3 29 1 7 5 2 2 1h10l6-3-2 4-5 2-11-1-6-4v-2l-3-1-1-9v-12l-2-15-1-3-2-39-2-67-1-18-3-3h-6l-3 4-1 5h-1v-14z" fill="#E9FBF6"/>
<path transform="translate(455,1315)" d="m0 0 11 2 24 6 18 7 12 6 10 3h22l14-5 13-6 2 1-10 6h-3v2l-12 6-15 2-16-3-10-4-16-8-20-6-13-2h-10v7l6 12 1 1v12l-3 7-2 1 2-8v-7l-4-11-4-7 1-8z" fill="#E9FBF6"/>
<path transform="translate(674,1191)" d="m0 0 3 3 12 17 9 9 8 5 11 2 17 3 5 4-1 4-5 4-32 20-17 8-9 3-17 4-16 7-20 12-5 2 4-4 19-12 14-7 25-7 13-5h4v-2l8-5 10-7 16-8 3-2-1-5-2-1-13-1-14-5-6-4-7-8-7-6-9-16z" fill="#E9FBF6"/>
<path transform="translate(631,947)" d="m0 0 3 1-7 8-3 6v10l3 14 10 20v13l-1 8h-17l-19-1h-16l-10 4-9 6-12 11-3 3-2-1 9-10 9-8 13-7 4-1 45-1 3-1 1-2v-17l-5-6-4-11-2-6-1-17 3-8h2v-2z" fill="#E9FBF6"/>
<path transform="translate(824,786)" d="m0 0 3 1-10 7-7 8-11 26-5 15-5 5-23 12-6 3h-11l-32-5-12-5-8-7 1-2 8 6 8 4 26 4 17 1 15-6 17-9 3-7 3-8 7-17 7-14 10-9z" fill="#E9FBF6"/>
<path transform="translate(840,1369)" d="m0 0 2 3 1 7-1 17-6 39-4 30v35l3 10 5 6-1 2-8-9-3-6v-36l5-38 2-7 2-18 1-4 2-26z" fill="#E9FBF6"/>
<path transform="translate(821,327)" d="m0 0 3 2 1 10v17l-2 12h-2l-2-4-2 2-4-12v-12l2-8h2v-2l3-1z" fill="#E9FBF6"/>
<path transform="translate(470,1069)" d="m0 0h9l21 6 7 1h13l11-4 4-1-1 2h-2v2l-4 3-5 1h-22l-20-5h-12l-14 4-9 1v2l-20 8-16 8-5 1 4-3 26-13 21-9z" fill="#E9FBF6"/>
<path transform="translate(1049,1227)" d="m0 0 2 4 1 50 3 46 1 42 2 17 4 10-4-1-2-5-3-35-3-52-1-27z" fill="#E9FBF6"/>
<path transform="translate(608,820)" d="m0 0 2 2 1 4 1 25 4 16 8 17 9 14 9 12 5 14v9l-4 7-7 7-2-1 7-10 1-2v-8l-3-16-8-10-7-11-4-6-3-5-5-13-1-1-2-19-1-4z" fill="#E9FBF6"/>
<path transform="translate(960,988)" d="m0 0 5 5 3 7 1 5v10l-4 11-8 7-18 8-11 6-7 6-2 4-1 13 2 9 6 10v3l-8-9-2-4v-24l4-5 10-8 9-5 13-5 6-4 5-8 2-8v-9l-4-12z" fill="#E9FBF6"/>
<path transform="translate(808,4)" d="m0 0 4 2 1 1v12l-2 16-1 28-4 13-5 10-12 6-2-1 8-5h2v-2h2l2-5 4-11 2-35 2-16z" fill="#E9FBF6"/>
<path transform="translate(703,224)" d="m0 0 1 3-5 7-6 3-18 3-2 1-17 1-5 3v5l-3-3-1-7 5-3 39-5 8-3z" fill="#E9FBF6"/>
<path transform="translate(848,1371)" d="m0 0 2 2 1 5v9l-3 28-3 16-2 17-1 7-2 48-2-4v-33l10-74z" fill="#E9FBF6"/>
<path transform="translate(603,1305)" d="m0 0 3 1-23 12-16 8-16 6h-17l-13-4 4-1 11 1h11l14-3 16-8z" fill="#E9FBF6"/>
<path transform="translate(1e3 1455)" d="m0 0h9l1 2h-7l-5 10-4 16-4 3-3 1h-20l-8-3-8-7-6-8 4 2 7 8 2 1v2l14 2h9l9-2 2-5 2-10 4-9z" fill="#E9FBF6"/>
<path transform="translate(751,143)" d="m0 0 2 1-3 3h-2l-1 3-10 3-8 1h-5l-2 4v17l-3 6-1-2 1-3-1-19 2-7 3-2h19l8-4z" fill="#E9FBF6"/>
<path transform="translate(932,1470)" d="m0 0h7l7 4 6 7-1 2-8-7-8-2-5 1h-2l-9 4-7 4h-7l-10-4-5-5h-7l2-3 6 1 10 6 2 1h9z" fill="#E9FBF6"/>
<path transform="translate(833,1142)" d="m0 0 4 2 7 7 11 7 11 5 7 2h11l8-3h3l-6 4-7 3h-7l-22-8-12-7-6-6-5-1z" fill="#E9FBF6"/>
<path transform="translate(947,960)" d="m0 0 7 6 9 10 5 6 4 4 6 12 1 4v16l-2 9-6 8-4 2 6-8 3-8v-19l-5-12-6-8-8-8-8-10z" fill="#E9FBF6"/>
<path transform="translate(806,1185)" d="m0 0 3 1h8l5-1 1 1-1 11-2 8v14l4 12-1 2-3-3-4-13v-9l3-15v-3l-12-2z" fill="#E9FBF6"/>
<path transform="translate(718,1259)" d="m0 0 2 1-11 8-14 7-7 3-2 2-9 3-1 1h-11l-13 5-6 3-2-1 16-8 16-4 15-5 23-12z" fill="#E9FBF6"/>
<path transform="translate(546,1050)" d="m0 0 2 1-10 9-11 7-9 3-14-1-16-4-7-2v-1h7l8 3 4 1h20l14-7z" fill="#E9FBF6"/>
<path transform="translate(963,1039)" d="m0 0 2 1-6 5-3 1-1 2-6 1-4 4-15 8-1 1v10l5 10-1 3-5-8-1-4v-12l4-5 14-8 17-8z" fill="#E9FBF6"/>
<path transform="translate(780,95)" d="m0 0 2 1-11 7-4 2-2 4-8 19-9 9-2-1 8-11 5-12 4-8 11-8z" fill="#E9FBF6"/>
<path transform="translate(599,767)" d="m0 0 3 3 9 17-1 7-5 9v7l2 5-1 3-4-4v-12l4-12v-7l-7-14z" fill="#E9FBF6"/>
<path transform="translate(916,1147)" d="m0 0 5 2 10 6 13 9 4 2 10 2 9 10-3 1-2-1v-2l-3-1-1-2-13-5-9-6-9-7-11-6z" fill="#E9FBF6"/>
<path transform="translate(1190,537)" d="m0 0 3 1-23 10-13 5-40 16-4-1 30-12 27-11z" fill="#E9FBF6"/>
<path transform="translate(806,1141)" d="m0 0 4 1 5 4 5 2h9l-2 3h-14l-1 5-3-4-4-8z" fill="#E9FBF6"/>
<path transform="translate(1019,1218)" d="m0 0h15l6 1v1l-21 1v16l-4 1-3-4h3l1-14z" fill="#E9FBF6"/>
<path transform="translate(857,1468)" d="m0 0h2v21l4 16-1 4-6-13-1-21z" fill="#E9FBF6"/>
<path transform="translate(689,1200)" d="m0 0 5 3 6 8 6 5 5 3 17 2 11 3-3 1-27-4-8-6-8-8-4-5z" fill="#E9FBF6"/>
<path transform="translate(713,186)" d="m0 0v3l-4 8-1 4-1 19-3 4v-21l4-11z" fill="#E9FBF6"/>
<path transform="translate(964,1118)" d="m0 0 4 4 4 10 1 4v10l-5 12-3 5 6 9-4-2-2-4h-2l-1-4 7-12 2-7-1-10-4-10z" fill="#E9FBF6"/>
<path transform="translate(897,1146)" d="m0 0v3l-5 6-7 3h-11l-9-3 4-1h16l6-3z" fill="#E9FBF6"/>
<path transform="translate(863,1474)" d="m0 0 7 1 8 2 5-3-2 5-1 1-7-1-9-3 4 20 3 7v6l-2-3-4-13-2-12z" fill="#E9FBF6"/>
<path transform="translate(838,1252)" d="m0 0 7 6 8 5 6 2h7l7-2-5 5-5 1-15-5-10-10z" fill="#E9FBF6"/>
<path transform="translate(1236,520)" d="m0 0 3 1-18 7-22 8-6 1 2-2 35-13z" fill="#E9FBF6"/>
<path transform="translate(863,1509)" d="m0 0 2 2 2 13-3 7-4-2-3-5 5 2 1-8z" fill="#E9FBF6"/>
<path transform="translate(844,1249)" d="m0 0 4 2 6 5 5 2h8l6-5 7-1 10 3 1 2-8-2h-8l-7 5h-10l-8-4z" fill="#E9FBF6"/>
<path transform="translate(813,1159)" d="m0 0h1v11l-2 5 4 1 8 1 1 2-14 2-1-5z" fill="#E9FBF6"/>
<path transform="translate(1066,703)" d="m0 0 2 3 5 25 3 8 1 2-4-2-3-6-3-19-1-4z" fill="#E9FBF6"/>
<path transform="translate(957,1123)" d="m0 0 4 5 3 7v9l-6 10-1-3 4-9v-8l-5-10z" fill="#E9FBF6"/>
<path transform="translate(877,1259)" d="m0 0 7 1 12 6 3 4 2 10-2-1-4-10-8-5-4-2h-7-3z" fill="#E9FBF6"/>
<path transform="translate(884,1340)" d="m0 0h2l-1 3-3 2-9 2-18 6-3-1 13-5 15-5z" fill="#E9FBF6"/>
<path transform="translate(916,1301)" d="m0 0h1v7l-9 8-8 6-3 3-2-1 5-6 11-7 3-5z" fill="#E9FBF6"/>
<path transform="translate(1081,580)" d="m0 0 3 1-15 7-10 3-4 1v-2l18-7z" fill="#E9FBF6"/>
<path transform="translate(804,1156)" d="m0 0 2 2v12l-1 13-2-1-1-10 2-13z" fill="#E9FBF6"/>
<path transform="translate(640,1293)" d="m0 0 2 1-5 4-7 4-11 7-6 2 4-4 20-12z" fill="#E9FBF6"/>
<path transform="translate(1048,674)" d="m0 0h1l2 9 4 7 1 1 10 1 2 2-14-1-3-3-3-7z" fill="#E9FBF6"/>
<path transform="translate(1074,703)" d="m0 0 2 2 4 16 3 10 2 6-4-4-5-19z" fill="#E9FBF6"/>
<path transform="translate(1079,1382)" d="m0 0h6l-4 2-7 6-4 5-4 1 1-2h2l2-5z" fill="#E9FBF6"/>
<path transform="translate(871,1533)" d="m0 0 1 3-1 11-3 9-1-4 1-11z" fill="#E9FBF6"/>
<path transform="translate(850,1353)" d="m0 0 2 1-4 4v13l-2-4-2-5 1-5z" fill="#E9FBF6"/>
<path transform="translate(1047,697)" d="m0 0 5 2h11l3 2-1 2-4-1h-8l-6-4z" fill="#E9FBF6"/>
<path transform="translate(881,1466)" d="m0 0 2 1-6 5-11-3-7-1v-1h9l8 2z" fill="#E9FBF6"/>
<path transform="translate(900,1328)" d="m0 0h2l-1 3-9 7-4 3-2-2 13-10z" fill="#E9FBF6"/>
<path transform="translate(943,1096)" d="m0 0 5 3 10 10-1 2-14-13z" fill="#E9FBF6"/>
<path transform="translate(838,1352)" d="m0 0 3 1-2 3v11l-3-3v-9z" fill="#E9FBF6"/>
<path transform="translate(993,1204)" d="m0 0 2 4 4 13-1 3-4-10-1-1z" fill="#E9FBF6"/>
<path transform="translate(1039,673)" d="m0 0h1l3 14-1 3v-2h-2l-1-2z" fill="#E9FBF6"/>
<path transform="translate(651,250)" d="m0 0 3 3 3 4-1 6-3 3v-9z" fill="#E9FBF6"/>
<path transform="translate(1110,569)" d="m0 0 3 1-7 4-8 1 2-2z" fill="#E9FBF6"/>
</svg>
